<svg width="68" height="68" viewBox="0 0 68 68" fill="none" xmlns="http://www.w3.org/2000/svg">
<g filter="url(#filter0_f_6:285)">
<circle cx="33.9996" cy="34" r="20.5" stroke="url(#paint0_linear_6:285)" stroke-width="3"/>
</g>
<circle cx="33.9996" cy="34" r="18.5" stroke="url(#paint1_linear_6:285)"/>
<path d="M31.3336 34.0003C31.3336 32.5276 32.5272 31.3333 34 31.3333C35.4727 31.3333 36.6669 32.5276 36.6669 34.0003C36.6669 35.4731 35.4727 36.6673 34 36.6673C32.5272 36.6673 31.3336 35.4731 31.3336 34.0003ZM29.8919 34.0003C29.8919 36.2692 31.7311 38.1084 34 38.1084C36.2688 38.1084 38.108 36.2692 38.108 34.0003C38.108 31.7314 36.2688 29.8923 34 29.8923C31.7311 29.8923 29.8919 31.7314 29.8919 34.0003ZM37.3106 29.7294C37.3105 29.9192 37.3668 30.1049 37.4722 30.2628C37.5776 30.4207 37.7275 30.5438 37.9029 30.6166C38.0783 30.6893 38.2713 30.7084 38.4576 30.6714C38.6438 30.6344 38.8149 30.5431 38.9492 30.4089C39.0835 30.2747 39.1751 30.1036 39.2122 29.9174C39.2493 29.7312 39.2304 29.5382 39.1578 29.3627C39.0852 29.1873 38.9622 29.0373 38.8043 28.9317C38.6465 28.8262 38.4609 28.7698 38.271 28.7697H38.2707C38.0161 28.7698 37.7721 28.871 37.5921 29.0509C37.4121 29.2308 37.3108 29.4749 37.3106 29.7294ZM30.7678 40.5124C29.9878 40.4769 29.5639 40.3469 29.2821 40.2372C28.9086 40.0918 28.6421 39.9186 28.3619 39.6388C28.0817 39.3589 27.9083 39.0927 27.7635 38.7192C27.6537 38.4376 27.5237 38.0135 27.4883 37.2335C27.4495 36.3902 27.4417 36.1369 27.4417 34.0004C27.4417 31.8639 27.4501 31.6113 27.4883 30.7673C27.5238 29.9873 27.6547 29.564 27.7635 29.2816C27.9089 28.9081 28.0821 28.6416 28.3619 28.3614C28.6417 28.0812 28.908 27.9077 29.2821 27.763C29.5637 27.6531 29.9878 27.5232 30.7678 27.4877C31.6111 27.449 31.8644 27.4412 34 27.4412C36.1355 27.4412 36.389 27.4496 37.233 27.4877C38.013 27.5233 38.4363 27.6541 38.7187 27.763C39.0923 27.9077 39.3588 28.0816 39.639 28.3614C39.9192 28.6412 40.092 28.9081 40.2374 29.2816C40.3472 29.5632 40.4771 29.9873 40.5126 30.7673C40.5514 31.6113 40.5591 31.8639 40.5591 34.0004C40.5591 36.1369 40.5514 36.3895 40.5126 37.2335C40.4771 38.0135 40.3465 38.4374 40.2374 38.7192C40.092 39.0927 39.9188 39.3592 39.639 39.6388C39.3591 39.9183 39.0923 40.0918 38.7187 40.2372C38.4371 40.347 38.013 40.4769 37.233 40.5124C36.3897 40.5512 36.1364 40.5589 34 40.5589C31.8635 40.5589 31.6109 40.5512 30.7678 40.5124ZM30.7016 26.0484C29.8499 26.0872 29.2679 26.2223 28.7597 26.42C28.2333 26.6243 27.7877 26.8983 27.3425 27.3428C26.8972 27.7874 26.6239 28.2337 26.4197 28.76C26.2219 29.2686 26.0869 29.8503 26.0481 30.7019C26.0087 31.555 25.9996 31.8277 25.9996 34.0003C25.9996 36.173 26.0087 36.4457 26.0481 37.2987C26.0869 38.1504 26.2219 38.732 26.4197 39.2406C26.6239 39.7666 26.8973 40.2134 27.3425 40.6578C27.7877 41.1022 28.2333 41.3758 28.7597 41.5806C29.2689 41.7784 29.8499 41.9134 30.7016 41.9522C31.5551 41.991 31.8273 42.0006 34 42.0006C36.1726 42.0006 36.4453 41.9916 37.2983 41.9522C38.1501 41.9134 38.7317 41.7784 39.2402 41.5806C39.7663 41.3758 40.2122 41.1024 40.6574 40.6578C41.1027 40.2132 41.3754 39.7666 41.5802 39.2406C41.778 38.732 41.9137 38.1504 41.9518 37.2987C41.9906 36.445 41.9996 36.173 41.9996 34.0003C41.9996 31.8277 41.9906 31.555 41.9518 30.7019C41.913 29.8502 41.778 29.2683 41.5802 28.76C41.3754 28.234 41.102 27.7881 40.6574 27.3428C40.2129 26.8976 39.7663 26.6243 39.2409 26.42C38.7317 26.2223 38.15 26.0866 37.299 26.0484C36.4459 26.0097 36.1732 26 34.0006 26C31.828 26 31.5551 26.009 30.7016 26.0484Z" fill="url(#paint2_linear_6:285)"/>
<defs>
<filter id="filter0_f_6:285" x="-0.000366211" y="0" width="68" height="68" filterUnits="userSpaceOnUse" color-interpolation-filters="sRGB">
<feFlood flood-opacity="0" result="BackgroundImageFix"/>
<feBlend mode="normal" in="SourceGraphic" in2="BackgroundImageFix" result="shape"/>
<feGaussianBlur stdDeviation="6" result="effect1_foregroundBlur_6:285"/>
</filter>
<linearGradient id="paint0_linear_6:285" x1="14.9996" y1="15" x2="54.4565" y2="16.5783" gradientUnits="userSpaceOnUse">
<stop stop-color="#6C34E0"/>
<stop offset="1" stop-color="#FF6ABF"/>
</linearGradient>
<linearGradient id="paint1_linear_6:285" x1="14.9996" y1="15" x2="54.4565" y2="16.5783" gradientUnits="userSpaceOnUse">
<stop stop-color="#6C34E0"/>
<stop offset="1" stop-color="#FF6ABF"/>
</linearGradient>
<linearGradient id="paint2_linear_6:285" x1="25.9996" y1="26" x2="42.6131" y2="26.6645" gradientUnits="userSpaceOnUse">
<stop stop-color="#6C34E0"/>
<stop offset="1" stop-color="#FF6ABF"/>
</linearGradient>
</defs>
</svg>
